<svg width="63" height="63" viewBox="0 0 63 63" fill="none" xmlns="http://www.w3.org/2000/svg">
<g id="Layer_1" clip-path="url(#clip0_211_4154)">
<g id="Group">
<path id="Vector" d="M31.4966 62.7066C48.7331 62.7066 62.7061 48.7336 62.7061 31.4971C62.7061 14.2606 48.7331 0.287598 31.4966 0.287598C14.2601 0.287598 0.287109 14.2606 0.287109 31.4971C0.287109 48.7336 14.2601 62.7066 31.4966 62.7066Z" fill="white"/>
<path id="Vector_2" d="M31.4971 63C14.1291 63 0 48.8651 0 31.4971C0 14.1291 14.1291 0 31.4971 0C48.8651 0 62.9942 14.1291 62.9942 31.4971C62.9942 48.8651 48.8651 62.9942 31.4971 62.9942V63ZM31.4971 0.57529C14.4455 0.57529 0.57529 14.4455 0.57529 31.4971C0.57529 48.5487 14.4455 62.419 31.4971 62.419C48.5487 62.419 62.419 48.5487 62.419 31.4971C62.419 14.4455 48.5487 0.57529 31.4971 0.57529Z" fill="white"/>
</g>
<g id="Group_2">
<path id="Vector_3" d="M31.5497 44.6828C31.5497 44.6828 28.1497 42.2033 23.8696 42.2033C19.5894 42.2033 16.1895 44.6828 16.1895 44.6828V25.0769C16.1895 25.0769 18.5827 21.6079 23.8696 21.6079C29.1565 21.6079 31.5497 25.0769 31.5497 25.0769V44.6828Z" fill="white"/>
<path id="Vector_4" d="M31.5488 45.2581C31.428 45.2581 31.3129 45.2178 31.2094 45.1488C31.1749 45.1258 27.9015 42.7786 23.8687 42.7786C19.8359 42.7786 16.5625 45.1258 16.528 45.1488C16.3554 45.2753 16.1195 45.2926 15.9297 45.1948C15.7398 45.097 15.6133 44.9014 15.6133 44.6828V25.0769C15.6133 24.9618 15.6478 24.8468 15.7168 24.749C15.8204 24.5994 18.3459 21.0269 23.8687 21.0269C29.3915 21.0269 31.917 24.5937 32.0205 24.749C32.0896 24.8468 32.1241 24.9618 32.1241 25.0769V44.6828C32.1241 44.9014 32.0033 45.097 31.8077 45.1948C31.7272 45.2351 31.6351 45.2581 31.5488 45.2581ZM23.8687 41.628C26.9983 41.628 29.6446 42.8764 30.9735 43.6415V25.2667C30.4845 24.6512 28.2466 22.1774 23.8687 22.1774C19.4907 22.1774 17.2529 24.6627 16.7639 25.2667V43.6357C18.0928 42.8706 20.7391 41.6222 23.8687 41.6222V41.628Z" fill="#701C3E"/>
</g>
<g id="Group_3">
<path id="Vector_5" d="M46.9091 44.6828C46.9091 44.6828 43.1812 42.2033 39.2289 42.2033C35.2767 42.2033 31.5488 44.6828 31.5488 44.6828V25.0769C31.5488 25.0769 33.9996 21.6079 39.2289 21.6079C44.4583 21.6079 46.9091 25.0769 46.9091 25.0769V44.6828Z" fill="white"/>
<path id="Vector_6" d="M46.9083 45.2581C46.799 45.2581 46.6839 45.2235 46.5919 45.1603C46.5574 45.1373 42.9561 42.7786 39.2339 42.7786C35.5118 42.7786 31.9105 45.1373 31.876 45.1603C31.6976 45.2753 31.4733 45.2868 31.2834 45.189C31.0993 45.0912 30.9785 44.8956 30.9785 44.6828V25.0769C30.9785 24.9561 31.013 24.841 31.0821 24.7432C31.1914 24.5937 33.7629 21.0269 39.2339 21.0269C44.7049 21.0269 47.2765 24.5879 47.3858 24.7432C47.4548 24.841 47.4893 24.9561 47.4893 25.0769V44.6828C47.4893 44.8956 47.3743 45.0912 47.1844 45.189C47.0981 45.2351 47.0061 45.2581 46.914 45.2581H46.9083ZM39.2282 41.628C42.1737 41.628 44.9581 42.9166 46.333 43.6703V25.2667C45.8267 24.6454 43.5601 22.1774 39.2282 22.1774C34.8962 22.1774 32.6296 24.6454 32.1233 25.2667V43.6703C33.4983 42.9166 36.2827 41.628 39.2282 41.628Z" fill="#701C3E"/>
</g>
<g id="Group_4">
<path id="Vector_7" d="M31.5497 43.9291C31.5497 43.9291 29.2485 39.9596 23.8696 39.9596C19.5894 39.9596 16.1895 42.4391 16.1895 42.4391V22.8333C16.1895 22.8333 18.5827 19.3643 23.8696 19.3643C29.1565 19.3643 31.5497 22.8333 31.5497 22.8333V43.9291Z" fill="white"/>
<path id="Vector_8" d="M31.5489 44.5044C31.3476 44.5044 31.1577 44.4009 31.0542 44.2168C30.9621 44.0614 28.8278 40.5349 23.8746 40.5349C19.8418 40.5349 16.5684 42.8821 16.5339 42.9051C16.3613 43.0317 16.1254 43.0489 15.9356 42.9511C15.7457 42.8533 15.6191 42.6577 15.6191 42.4391V22.8332C15.6191 22.7182 15.6537 22.6031 15.7227 22.5053C15.8262 22.3558 18.3518 18.7832 23.8746 18.7832C29.3973 18.7832 31.9229 22.35 32.0264 22.5053C32.0954 22.6031 32.13 22.7182 32.13 22.8332V43.9291C32.13 44.188 31.9574 44.4181 31.7042 44.4872C31.6525 44.4987 31.6064 44.5044 31.5547 44.5044H31.5489ZM23.8688 39.3843C27.4644 39.3843 29.7598 41.0412 30.9736 42.2895V23.0231C30.4846 22.4075 28.2468 19.9338 23.8688 19.9338C19.4908 19.9338 17.253 22.419 16.764 23.0231V41.3921C18.0929 40.627 20.7392 39.3786 23.8688 39.3786V39.3843Z" fill="#701C3E"/>
</g>
<g id="Group_5">
<path id="Vector_9" d="M46.9091 42.4449C46.9091 42.4449 43.1812 39.9654 39.2289 39.9654C34.339 39.9654 31.5488 43.9349 31.5488 43.9349V22.839C31.5488 22.839 33.9996 19.37 39.2289 19.37C44.4583 19.37 46.9091 22.839 46.9091 22.839V42.4449Z" fill="white"/>
<path id="Vector_10" d="M31.5479 44.5044C31.4904 44.5044 31.4329 44.4987 31.3754 44.4756C31.1337 44.4009 30.9727 44.1765 30.9727 43.9291V22.8332C30.9727 22.7124 31.0072 22.5974 31.0762 22.4996C31.1855 22.35 33.7571 18.7832 39.2281 18.7832C44.6991 18.7832 47.2706 22.3442 47.3799 22.4996C47.449 22.5974 47.4835 22.7124 47.4835 22.8332V42.4391C47.4835 42.652 47.3684 42.8476 47.1786 42.9454C46.9887 43.0432 46.7644 43.0374 46.586 42.9166C46.5515 42.8936 42.9502 40.5349 39.2281 40.5349C34.689 40.5349 32.0484 44.2225 32.0197 44.257C31.9104 44.4124 31.732 44.4987 31.5479 44.4987V44.5044ZM32.1232 23.0288V42.4104C33.4004 41.162 35.8224 39.3843 39.2281 39.3843C42.1736 39.3843 44.958 40.673 46.3329 41.4266V23.0231C45.8266 22.4018 43.56 19.9338 39.2281 19.9338C34.8961 19.9338 32.6295 22.4018 32.1232 23.0231V23.0288Z" fill="#701C3E"/>
</g>
<g id="Group_6">
<path id="Vector_11" d="M31.5497 44.1018C31.5497 44.1018 29.9216 37.6527 23.8696 37.6527C19.5894 37.6527 16.1895 40.1323 16.1895 40.1323V20.5264C16.1895 20.5264 18.5827 17.0574 23.8696 17.0574C29.1565 17.0574 31.5497 20.5264 31.5497 20.5264V44.1018Z" fill="white"/>
<path id="Vector_12" d="M31.5488 44.677C31.2899 44.677 31.0598 44.4987 30.9908 44.2456C30.9275 43.9982 29.3857 38.2338 23.8687 38.2338C19.8359 38.2338 16.5625 40.581 16.528 40.604C16.3554 40.7305 16.1195 40.7478 15.9297 40.65C15.7341 40.5522 15.6133 40.3566 15.6133 40.138V20.5321C15.6133 20.417 15.6478 20.302 15.7168 20.2042C15.8204 20.0546 18.3459 16.4821 23.8687 16.4821C29.3915 16.4821 31.917 20.0489 32.0205 20.1984C32.0896 20.2962 32.1241 20.4113 32.1241 20.5263V44.1017C32.1241 44.3894 31.9055 44.6367 31.6178 44.6713C31.5948 44.6713 31.5718 44.6713 31.5431 44.6713L31.5488 44.677ZM23.8687 37.0774C27.6368 37.0774 29.8172 39.4246 30.9735 41.3749V20.7162C30.4845 20.1006 28.2466 17.6269 23.8687 17.6269C19.4907 17.6269 17.2529 20.1121 16.7639 20.7162V39.0852C18.0928 38.3201 20.7391 37.0717 23.8687 37.0717V37.0774Z" fill="#701C3E"/>
</g>
<g id="Group_7">
<path id="Vector_13" d="M46.9091 40.138C46.9091 40.138 43.1812 37.6585 39.2289 37.6585C33.361 37.6585 31.5488 44.1075 31.5488 44.1075V20.5321C31.5488 20.5321 33.9996 17.0631 39.2289 17.0631C44.4583 17.0631 46.9091 20.5321 46.9091 20.5321V40.138Z" fill="white"/>
<path id="Vector_14" d="M31.5479 44.677C31.5479 44.677 31.4962 44.677 31.4674 44.677C31.1855 44.6367 30.9727 44.3951 30.9727 44.1075V20.5321C30.9727 20.4113 31.0072 20.2962 31.0762 20.1984C31.1855 20.0489 33.7571 16.4821 39.2281 16.4821C44.6991 16.4821 47.2706 20.0431 47.3799 20.1984C47.449 20.2962 47.4835 20.4113 47.4835 20.5321V40.138C47.4835 40.3508 47.3684 40.5464 47.1786 40.6442C46.9887 40.742 46.7644 40.7363 46.586 40.6155C46.5515 40.5925 42.9502 38.2338 39.2281 38.2338C33.8779 38.2338 32.175 44.0154 32.1002 44.2628C32.0312 44.5102 31.8011 44.6828 31.5479 44.6828V44.677ZM32.1232 20.7219V41.4726C33.3026 39.5052 35.5059 37.0832 39.2281 37.0832C42.1736 37.0832 44.958 38.3718 46.3329 39.1255V20.7219C45.8266 20.1006 43.56 17.6326 39.2281 17.6326C34.8961 17.6326 32.6237 20.1121 32.1232 20.7277V20.7219Z" fill="#701C3E"/>
</g>
</g>
<defs>
<clipPath id="clip0_211_4154">
<rect width="63" height="63" fill="white"/>
</clipPath>
</defs>
</svg>
