<svg width="63" height="63" viewBox="0 0 63 63" fill="none" xmlns="http://www.w3.org/2000/svg">
<g id="Layer_1" clip-path="url(#clip0_211_4176)">
<g id="Group">
<path id="Vector" d="M31.4966 62.7066C48.7331 62.7066 62.7061 48.7337 62.7061 31.4971C62.7061 14.2606 48.7331 0.287659 31.4966 0.287659C14.2601 0.287659 0.287109 14.2606 0.287109 31.4971C0.287109 48.7337 14.2601 62.7066 31.4966 62.7066Z" fill="white"/>
<path id="Vector_2" d="M31.4971 63C14.1291 63 0 48.8651 0 31.4971C0 14.1291 14.1291 0 31.4971 0C48.8651 0 62.9942 14.1291 62.9942 31.4971C62.9942 48.8651 48.8651 62.9942 31.4971 62.9942V63ZM31.4971 0.57529C14.4455 0.57529 0.57529 14.4455 0.57529 31.4971C0.57529 48.5487 14.4455 62.419 31.4971 62.419C48.5487 62.419 62.419 48.5487 62.419 31.4971C62.419 14.4455 48.5487 0.57529 31.4971 0.57529Z" fill="white"/>
</g>
<path id="Vector_3" d="M25.7103 33.804C28.2934 33.804 30.3874 31.71 30.3874 29.1269C30.3874 26.5438 28.2934 24.4498 25.7103 24.4498C23.1272 24.4498 21.0332 26.5438 21.0332 29.1269C21.0332 31.71 23.1272 33.804 25.7103 33.804Z" fill="#701C3E"/>
<path id="Vector_4" d="M44.1537 33.804C46.7368 33.804 48.8308 31.71 48.8308 29.1269C48.8308 26.5438 46.7368 24.4498 44.1537 24.4498C41.5706 24.4498 39.4766 26.5438 39.4766 29.1269C39.4766 31.71 41.5706 33.804 44.1537 33.804Z" fill="#701C3E"/>
<path id="Vector_5" d="M31.4974 16.6547C33.3243 16.6547 34.8053 15.1736 34.8053 13.3467C34.8053 11.5198 33.3243 10.0388 31.4974 10.0388C29.6705 10.0388 28.1895 11.5198 28.1895 13.3467C28.1895 15.1736 29.6705 16.6547 31.4974 16.6547Z" fill="#701C3E"/>
<path id="Vector_6" d="M20.0482 46.5985C21.8751 46.5985 23.3561 45.1175 23.3561 43.2906C23.3561 41.4637 21.8751 39.9827 20.0482 39.9827C18.2212 39.9827 16.7402 41.4637 16.7402 43.2906C16.7402 45.1175 18.2212 46.5985 20.0482 46.5985Z" fill="#701C3E"/>
<path id="Vector_7" d="M36.1808 52.6735C39.7615 52.6735 42.6643 49.7707 42.6643 46.19C42.6643 42.6093 39.7615 39.7065 36.1808 39.7065C32.6 39.7065 29.6973 42.6093 29.6973 46.19C29.6973 49.7707 32.6 52.6735 36.1808 52.6735Z" fill="#701C3E"/>
<path id="Vector_8" d="M26.1955 28.8278L25.2148 29.4297L35.6842 46.4874L36.6648 45.8855L26.1955 28.8278Z" fill="#701C3E"/>
<path id="Vector_9" d="M24.3233 28.5827L19.4727 43.1812L20.5645 43.544L25.4152 28.9455L24.3233 28.5827Z" fill="#701C3E"/>
<path id="Vector_10" d="M31.3775 12.5161L30.4902 13.2486L43.2317 28.6833L44.119 27.9508L31.3775 12.5161Z" fill="#701C3E"/>
<path id="Vector_11" d="M44.8027 28.3367L24.793 28.7663L24.8177 29.9166L44.8274 29.487L44.8027 28.3367Z" fill="#701C3E"/>
</g>
<defs>
<clipPath id="clip0_211_4176">
<rect width="63" height="63" fill="white"/>
</clipPath>
</defs>
</svg>
