<svg width="63" height="63" viewBox="0 0 63 63" fill="none" xmlns="http://www.w3.org/2000/svg">
<g id="Layer_1" clip-path="url(#clip0_211_4189)">
<g id="Group">
<path id="Vector" d="M31.4966 62.7066C48.7331 62.7066 62.7061 48.7337 62.7061 31.4971C62.7061 14.2606 48.7331 0.287659 31.4966 0.287659C14.2601 0.287659 0.287109 14.2606 0.287109 31.4971C0.287109 48.7337 14.2601 62.7066 31.4966 62.7066Z" fill="white"/>
<path id="Vector_2" d="M31.4971 63C14.1291 63 0 48.8651 0 31.4971C0 14.1291 14.1291 0 31.4971 0C48.8651 0 62.9942 14.1291 62.9942 31.4971C62.9942 48.8651 48.8651 62.9942 31.4971 62.9942V63ZM31.4971 0.57529C14.4455 0.57529 0.57529 14.4455 0.57529 31.4971C0.57529 48.5487 14.4455 62.419 31.4971 62.419C48.5487 62.419 62.419 48.5487 62.419 31.4971C62.419 14.4455 48.5487 0.57529 31.4971 0.57529Z" fill="white"/>
</g>
<g id="Group_2">
<path id="Vector_3" d="M27.469 11.293H26.5025C26.3436 11.293 26.2148 11.4218 26.2148 11.5806V54.8654C26.2148 55.0243 26.3436 55.1531 26.5025 55.1531H27.469C27.6278 55.1531 27.7566 55.0243 27.7566 54.8654V11.5806C27.7566 11.4218 27.6278 11.293 27.469 11.293Z" fill="#701C3E"/>
<path id="Vector_4" d="M27.4695 11.5806V54.8654H26.503V11.5806H27.4695ZM27.4695 11.0053H26.503C26.1866 11.0053 25.9277 11.2642 25.9277 11.5806V54.8654C25.9277 55.1818 26.1866 55.4407 26.503 55.4407H27.4695C27.7859 55.4407 28.0448 55.1818 28.0448 54.8654V11.5806C28.0448 11.2642 27.7859 11.0053 27.4695 11.0053Z" fill="#701C3E"/>
</g>
<g id="Group_3">
<path id="Vector_5" d="M44.1646 21.7633H29.3164V12.7025H44.1646L47.3633 17.2357L44.1646 21.7633Z" fill="#701C3E"/>
<path id="Vector_6" d="M44.1593 22.0509H29.3111C29.15 22.0509 29.0234 21.9243 29.0234 21.7632V12.7082C29.0234 12.5471 29.15 12.4205 29.3111 12.4205H44.1593C44.2514 12.4205 44.3377 12.4666 44.3952 12.5413L47.5938 17.0689C47.6628 17.1667 47.6628 17.299 47.5938 17.4025L44.3952 21.9301C44.3434 22.0049 44.2514 22.0509 44.1593 22.0509ZM29.5987 21.4756H44.0097L47.007 17.2357L44.0097 12.9958H29.5987V21.4756Z" fill="#701C3E"/>
</g>
</g>
<defs>
<clipPath id="clip0_211_4189">
<rect width="63" height="63" fill="white"/>
</clipPath>
</defs>
</svg>
