<svg width="63" height="60" viewBox="0 0 63 60" fill="none" xmlns="http://www.w3.org/2000/svg">
<g id="Layer_1" clip-path="url(#clip0_211_4148)">
<path id="Vector" d="M31.4966 59.7205C48.7331 59.7205 62.7061 46.413 62.7061 29.9972C62.7061 13.5815 48.7331 0.273926 31.4966 0.273926C14.2601 0.273926 0.287109 13.5815 0.287109 29.9972C0.287109 46.413 14.2601 59.7205 31.4966 59.7205Z" fill="white" stroke="white" stroke-linecap="round" stroke-linejoin="round"/>
<path id="Vector_2" d="M45.1842 17.445L44.327 14.1795L47.4278 11.2263C45.2993 10.6401 42.9118 11.1442 41.2377 12.7385C39.2817 14.6014 38.8905 17.3792 40.0526 19.6201L19.3364 39.3498C17.4265 38.5992 15.1483 38.9553 13.595 40.4346C11.5412 42.3906 11.5412 45.5684 13.595 47.5299C15.6488 49.4913 18.9855 49.4859 21.045 47.5299C22.5983 46.0506 22.978 43.8809 22.1841 42.0619L42.9003 22.3322C45.2475 23.4389 48.1699 23.0664 50.1259 21.2035C51.8 19.6091 52.3293 17.3299 51.7137 15.3082L48.6129 18.2613L45.1842 17.445ZM20.2109 44.7247L18.088 46.7464L15.1943 46.0067L14.4177 43.2508L16.5405 41.2291L19.4342 41.9687L20.2109 44.7247Z" fill="#701C3E" stroke="#701C3E" stroke-linecap="round" stroke-linejoin="round"/>
</g>
<defs>
<clipPath id="clip0_211_4148">
<rect width="63" height="60" fill="white"/>
</clipPath>
</defs>
</svg>
