<svg width="63" height="62" viewBox="0 0 63 62" fill="none" xmlns="http://www.w3.org/2000/svg">
<g id="Layer_1" clip-path="url(#clip0_211_4151)">
<path id="Vector" d="M31.4966 61.7113C48.7331 61.7113 62.7061 47.9601 62.7061 30.9972C62.7061 14.0342 48.7331 0.283081 31.4966 0.283081C14.2601 0.283081 0.287109 14.0342 0.287109 30.9972C0.287109 47.9601 14.2601 61.7113 31.4966 61.7113Z" fill="white" stroke="white" stroke-linecap="round" stroke-linejoin="round"/>
<path id="Vector_2" d="M46.5747 26.2641C46.5747 21.616 42.7432 17.8453 38.0201 17.8453C35.4025 17.8453 33.0669 19.006 31.4963 20.8233C29.9258 19.0003 27.5901 17.8453 24.9725 17.8453C20.2494 17.8453 16.418 21.616 16.418 26.2641C16.418 27.7701 16.8264 29.1855 17.534 30.4084H17.465L17.6433 30.5839C18.3682 31.7728 31.433 44.1547 31.433 44.1547C31.433 44.1547 44.3253 32.1182 45.0962 31.0029C46.0339 29.6554 46.5804 28.0192 46.5804 26.2641H46.5747Z" fill="#701C3E"/>
</g>
<defs>
<clipPath id="clip0_211_4151">
<rect width="63" height="62" fill="white"/>
</clipPath>
</defs>
</svg>
